<svg xmlns="http://www.w3.org/2000/svg" width="207.533" height="45.401" viewBox="0 0 207.533 45.401"><defs><style>.a{fill:#6454d6;}.b{fill:#8380ff;}.c{fill:#fff;font-size:28px;font-family:Asap-SemiBold, Asap;font-weight:600;}</style></defs><g transform="translate(0.066)"><g transform="translate(-0.066)"><path class="a" d="M17.92,25.334H.295a.312.312,0,0,1-.319-.465L8.667.312A.472.472,0,0,1,9.094,0H26.853c7,0,10.668,5.669,8.194,12.67h0C32.586,19.665,24.915,25.334,17.92,25.334Z" transform="translate(0.066)"/><path class="b" d="M21.616,61.46H7.275a.459.459,0,0,1-.421-.306l-5.79-16.4a.306.306,0,0,1,.287-.434H15.679a.465.465,0,0,1,.421.306l5.79,16.42a.312.312,0,0,1-.274.414Z" transform="translate(-0.333 -16.059)"/><text class="c" transform="translate(45.533 28.844)"><tspan x="0" y="0">prompter.me</tspan></text></g></g></svg>