<svg xmlns="http://www.w3.org/2000/svg" viewBox="0 0 342.13 71.2"><defs><style>.cls-1{fill:#6454d6;}.cls-2{fill:#8380ff;}.cls-3{fill:#333;}</style></defs><title>Asset 4</title><g id="Layer_2" data-name="Layer 2"><g id="Layer_1-2" data-name="Layer 1"><path class="cls-1" d="M28.14,39.73H.5A.49.49,0,0,1,0,39L13.63.49A.74.74,0,0,1,14.3,0H42.15C53.12,0,58.88,8.89,55,19.87h0C51.14,30.84,39.11,39.73,28.14,39.73Z"/><path class="cls-2" d="M33.31,71.2H10.82a.72.72,0,0,1-.66-.48L1.08,45a.48.48,0,0,1,.45-.68H24a.73.73,0,0,1,.66.48l9.08,25.75A.49.49,0,0,1,33.31,71.2Z"/><path class="cls-3" d="M75.53,57.92a1.11,1.11,0,0,1-.59-1V31.65A28,28,0,0,0,74.66,27a14.92,14.92,0,0,1-.29-1.8q0-.66,1.56-1a12.52,12.52,0,0,1,2.75-.36,1.19,1.19,0,0,1,1.14.67,6,6,0,0,1,.49,1.39c.11.49.18.83.22,1a8.52,8.52,0,0,1,2.91-2.6,7.8,7.8,0,0,1,3.81-.95A7.6,7.6,0,0,1,92,24.91a9.73,9.73,0,0,1,3.15,4.42,18.88,18.88,0,0,1,1.11,6.77q0,5.92-2.63,9.3a8.63,8.63,0,0,1-7.22,3.39A9,9,0,0,1,80.86,47v9.89c0,.92-.84,1.38-2.51,1.38h-.9A4.13,4.13,0,0,1,75.53,57.92ZM90.13,36.2A12.18,12.18,0,0,0,89,30.31a3.64,3.64,0,0,0-3.36-2,4.53,4.53,0,0,0-2.58.81,8.57,8.57,0,0,0-2.2,2.18V42.64A7.18,7.18,0,0,0,85.07,44Q90.14,44,90.13,36.2Z"/><path class="cls-3" d="M101.87,47.18V31.65a26.88,26.88,0,0,0-.28-4.63,14.92,14.92,0,0,1-.29-1.8c0-.44.52-.78,1.57-1a12.55,12.55,0,0,1,2.79-.36,1.14,1.14,0,0,1,1.09.67,6,6,0,0,1,.49,1.39c.11.49.19.83.22,1q2.17-3.55,5.25-3.55a2.77,2.77,0,0,1,2.11.69,2.26,2.26,0,0,1,.64,1.58,8.12,8.12,0,0,1-.38,2.23c-.26.85-.57,1.28-1,1.28a4.21,4.21,0,0,1-.92-.22,4.75,4.75,0,0,0-1.4-.21,3.77,3.77,0,0,0-2.46.9,6.12,6.12,0,0,0-1.51,1.66v15.9c0,.92-.86,1.37-2.56,1.37h-.9C102.71,48.55,101.87,48.1,101.87,47.18Z"/><path class="cls-3" d="M120.9,45.52Q118,42.27,118,36.1t2.89-9.46q2.88-3.27,8.42-3.27c3.67,0,6.45,1.09,8.36,3.27s2.86,5.33,2.86,9.46-.95,7.29-2.86,9.45-4.69,3.24-8.36,3.24S122.82,47.7,120.9,45.52ZM133.18,42a11.26,11.26,0,0,0,1.26-6,11.17,11.17,0,0,0-1.26-5.94,4.3,4.3,0,0,0-3.9-2,4.36,4.36,0,0,0-3.93,2,11.06,11.06,0,0,0-1.28,5.94,11.14,11.14,0,0,0,1.28,6,4.36,4.36,0,0,0,3.93,2A4.3,4.3,0,0,0,133.18,42Z"/><path class="cls-3" d="M179.59,31V47.18c0,.92-.83,1.37-2.51,1.37h-.94c-1.68,0-2.51-.45-2.51-1.37V31.84q0-3.49-3.41-3.5a4.11,4.11,0,0,0-2.65.92,7.87,7.87,0,0,0-1.8,2v15.9c0,.92-.84,1.37-2.51,1.37h-.9a4.11,4.11,0,0,1-1.91-.33,1.11,1.11,0,0,1-.6-1V31.84q0-3.49-3.4-3.5a4.15,4.15,0,0,0-2.8,1A6.83,6.83,0,0,0,152,31.28v15.9c0,.92-.84,1.37-2.51,1.37h-1c-1.67,0-2.51-.45-2.51-1.37V31.65a26.88,26.88,0,0,0-.28-4.63,14.92,14.92,0,0,1-.29-1.8c0-.44.53-.78,1.57-1a12.55,12.55,0,0,1,2.79-.36,1.14,1.14,0,0,1,1.09.67,6,6,0,0,1,.49,1.39c.12.49.19.83.22,1a10.21,10.21,0,0,1,3.1-2.53,8.21,8.21,0,0,1,4-1q5,0,6.39,3.69a10.7,10.7,0,0,1,3.24-2.62,8.57,8.57,0,0,1,4.14-1.07Q179.6,23.37,179.59,31Z"/><path class="cls-3" d="M187.05,57.92a1.1,1.1,0,0,1-.6-1V31.65a26.88,26.88,0,0,0-.28-4.63,14,14,0,0,1-.28-1.8q0-.66,1.56-1a12.36,12.36,0,0,1,2.74-.36,1.18,1.18,0,0,1,1.14.67,6.06,6.06,0,0,1,.5,1.39q.16.74.21,1a8.71,8.71,0,0,1,2.91-2.6,7.8,7.8,0,0,1,3.81-.95,7.58,7.58,0,0,1,4.73,1.54,9.73,9.73,0,0,1,3.15,4.42,18.88,18.88,0,0,1,1.11,6.77q0,5.92-2.62,9.3a8.63,8.63,0,0,1-7.22,3.39,9,9,0,0,1-5.54-1.8v9.89c0,.92-.84,1.38-2.51,1.38H189A4.09,4.09,0,0,1,187.05,57.92Zm14.6-21.72a12.16,12.16,0,0,0-1.14-5.89,3.64,3.64,0,0,0-3.36-2,4.57,4.57,0,0,0-2.58.81,8.73,8.73,0,0,0-2.2,2.18V42.64A7.2,7.2,0,0,0,196.58,44Q201.65,44,201.65,36.2Z"/><path class="cls-3" d="M215.92,47c-1.22-1.17-1.82-3-1.82-5.49V28.48h-1.28a1.06,1.06,0,0,1-1-.47,2.94,2.94,0,0,1-.31-1.56v-.71a2.9,2.9,0,0,1,.31-1.56,1.06,1.06,0,0,1,1-.48h1.28l.61-4.64c.16-.91.88-1.37,2.18-1.37H218c1.35,0,2,.46,2,1.37V23.7H223a1.08,1.08,0,0,1,1,.48,3,3,0,0,1,.31,1.56v.71a3,3,0,0,1-.31,1.56,1.07,1.07,0,0,1-1,.47h-2.89v13a3.06,3.06,0,0,0,.5,2,1.87,1.87,0,0,0,1.49.57,3.82,3.82,0,0,0,.9-.1,3.36,3.36,0,0,1,.66-.09c.38,0,.69.4.95,1.21a6.76,6.76,0,0,1,.38,1.77q0,2-4.17,2A6.68,6.68,0,0,1,215.92,47Z"/><path class="cls-3" d="M231.37,45.55c-2-2.16-3-5.27-3-9.3q0-6.54,3-9.71c2-2.11,4.76-3.17,8.35-3.17,3.41,0,5.94,1.11,7.6,3.31s2.48,5.2,2.48,9a2.74,2.74,0,0,1-.85,1.49c-.57.65-1,1-1.28,1H234.59a6.67,6.67,0,0,0,1.73,4.52,6.11,6.11,0,0,0,4.33,1.4,11.55,11.55,0,0,0,5.21-1.33,3.64,3.64,0,0,1,.94-.33c.41,0,.88.42,1.4,1.26a4.14,4.14,0,0,1,.78,1.91c0,.6-.46,1.16-1.37,1.66a12.43,12.43,0,0,1-3.39,1.18,17.78,17.78,0,0,1-3.76.43Q234.35,48.79,231.37,45.55Zm12.5-11.67a7.22,7.22,0,0,0-1.07-4.21,3.6,3.6,0,0,0-3.14-1.52q-4.41,0-5.07,5.73Z"/><path class="cls-3" d="M255.09,47.18V31.65A26.64,26.64,0,0,0,254.8,27a14,14,0,0,1-.28-1.8q0-.66,1.56-1a12.55,12.55,0,0,1,2.79-.36,1.13,1.13,0,0,1,1.09.67,6.06,6.06,0,0,1,.5,1.39q.17.74.21,1,2.18-3.55,5.25-3.55a2.76,2.76,0,0,1,2.11.69,2.21,2.21,0,0,1,.64,1.58,8.12,8.12,0,0,1-.38,2.23c-.25.85-.57,1.28-1,1.28a4.34,4.34,0,0,1-.92-.22,4.73,4.73,0,0,0-1.39-.21,3.78,3.78,0,0,0-2.47.9,6.29,6.29,0,0,0-1.51,1.66v15.9c0,.92-.85,1.37-2.56,1.37h-.9C255.92,48.55,255.09,48.1,255.09,47.18Z"/><path class="cls-3" d="M270.52,47.18V43.25c0-.88.83-1.32,2.5-1.32h1.28c1.67,0,2.51.44,2.51,1.32v3.93c0,.92-.84,1.37-2.51,1.37H273C271.35,48.55,270.52,48.1,270.52,47.18Z"/><path class="cls-3" d="M315.24,31V47.18c0,.92-.83,1.37-2.5,1.37h-.95c-1.67,0-2.51-.45-2.51-1.37V31.84c0-2.33-1.13-3.5-3.41-3.5a4.11,4.11,0,0,0-2.65.92,8.06,8.06,0,0,0-1.8,2v15.9c0,.92-.83,1.37-2.51,1.37H298a4.13,4.13,0,0,1-1.92-.33,1.1,1.1,0,0,1-.59-1V31.84q0-3.49-3.41-3.5a4.14,4.14,0,0,0-2.79,1,6.88,6.88,0,0,0-1.66,1.92v15.9c0,.92-.84,1.37-2.51,1.37h-.94c-1.68,0-2.51-.45-2.51-1.37V31.65A26.64,26.64,0,0,0,281.4,27a14,14,0,0,1-.28-1.8q0-.66,1.56-1a12.55,12.55,0,0,1,2.79-.36,1.13,1.13,0,0,1,1.09.67,6.06,6.06,0,0,1,.5,1.39q.17.74.21,1a10.21,10.21,0,0,1,3.1-2.53,8.24,8.24,0,0,1,4-1q5,0,6.39,3.69A10.7,10.7,0,0,1,304,24.44a8.58,8.58,0,0,1,4.15-1.07Q315.25,23.37,315.24,31Z"/><path class="cls-3" d="M323.72,45.55c-2-2.16-3-5.27-3-9.3q0-6.54,2.95-9.71t8.36-3.17c3.41,0,5.94,1.11,7.59,3.31s2.49,5.2,2.49,9a2.74,2.74,0,0,1-.85,1.49c-.57.65-1,1-1.28,1H326.94a6.66,6.66,0,0,0,1.72,4.52A6.13,6.13,0,0,0,333,44a11.51,11.51,0,0,0,5.21-1.33,3.54,3.54,0,0,1,.95-.33c.41,0,.87.42,1.39,1.26a4.14,4.14,0,0,1,.78,1.91c0,.6-.45,1.16-1.37,1.66a12.23,12.23,0,0,1-3.38,1.18,17.85,17.85,0,0,1-3.76.43Q326.69,48.79,323.72,45.55Zm12.49-11.67a7.22,7.22,0,0,0-1.06-4.21A3.61,3.61,0,0,0,332,28.15q-4.39,0-5.06,5.73Z"/></g></g></svg>