<svg xmlns="http://www.w3.org/2000/svg" width="201" height="44.495" viewBox="0 0 201 44.495"><defs><style>.a{fill:#6454d6;}.b{fill:#8380ff;}.c{fill:#fff;font-size:28px;font-family:Asap-SemiBold, Asap;font-weight:600;}</style></defs><g transform="translate(0.066)"><g transform="translate(-0.066)"><path class="a" d="M18.2,25.727H.3a.317.317,0,0,1-.324-.473L8.8.317A.479.479,0,0,1,9.237,0H27.271c7.1,0,10.833,5.757,8.321,12.867h0C33.092,19.97,25.3,25.727,18.2,25.727Z" transform="translate(0.066)"/><path class="b" d="M21.935,61.726H7.372a.466.466,0,0,1-.427-.311L1.065,44.76a.311.311,0,0,1,.291-.44h14.55a.473.473,0,0,1,.427.311l5.88,16.674a.317.317,0,0,1-.278.421Z" transform="translate(-0.322 -17.231)"/><text class="c" transform="translate(39 28.888)"><tspan x="0" y="0">prompter.me</tspan></text></g></g></svg>