<svg xmlns="http://www.w3.org/2000/svg" viewBox="0 0 344.02 71.2"><defs><style>.cls-1{fill:#6454d6;}.cls-2{fill:#8380ff;}.cls-3{font-size:47.33px;fill:#333;font-family:Asap-SemiBold, Asap SemiBold;font-weight:600;}</style></defs><title>Asset 2</title><g id="Layer_2" data-name="Layer 2"><g id="Layer_1-2" data-name="Layer 1"><path class="cls-1" d="M28.14,39.73H.5A.49.49,0,0,1,0,39L13.63.49A.74.74,0,0,1,14.3,0H42.15C53.12,0,58.88,8.89,55,19.87h0C51.14,30.84,39.11,39.73,28.14,39.73Z"/><path class="cls-2" d="M33.31,71.2H10.82a.72.72,0,0,1-.66-.48L1.08,45a.48.48,0,0,1,.45-.68H24a.73.73,0,0,1,.66.48l9.08,25.75A.49.49,0,0,1,33.31,71.2Z"/><text class="cls-3" transform="translate(71.34 48.46)">prompter.me</text></g></g></svg>