<svg xmlns="http://www.w3.org/2000/svg" viewBox="0 0 325.39 71.2"><defs><style>.cls-1{fill:#6454d6;}.cls-2{fill:#8380ff;}.cls-3{fill:#fff;}</style></defs><g id="Layer_2" data-name="Layer 2"><g id="Layer_1-2" data-name="Layer 1"><path class="cls-1" d="M28.14,39.73H.5A.49.49,0,0,1,0,39L13.63.49A.74.74,0,0,1,14.3,0H42.15C53.12,0,58.88,8.89,55,19.87h0C51.14,30.84,39.11,39.73,28.14,39.73Z"/><path class="cls-2" d="M33.31,71.2H10.82a.72.72,0,0,1-.66-.48L1.08,45a.48.48,0,0,1,.45-.68H24a.73.73,0,0,1,.66.48l9.08,25.75A.49.49,0,0,1,33.31,71.2Z"/><path class="cls-3" d="M90.27,21.92a8.48,8.48,0,0,1,3.46,3.41A10.22,10.22,0,0,1,95,30.39a9.6,9.6,0,0,1-1.27,5,8.74,8.74,0,0,1-3.57,3.32,11.36,11.36,0,0,1-5.29,1.18H78.5a.19.19,0,0,0-.22.22V51.43a.55.55,0,0,1-.54.54H72.53a.55.55,0,0,1-.54-.54V21.25a.55.55,0,0,1,.54-.54H85.1A10.62,10.62,0,0,1,90.27,21.92Zm-2.8,11.7a4.08,4.08,0,0,0,1.24-3.1,4.18,4.18,0,0,0-1.24-3.16,4.55,4.55,0,0,0-3.3-1.21H78.5a.2.2,0,0,0-.22.22v8.21a.19.19,0,0,0,.22.22h5.67A4.62,4.62,0,0,0,87.47,33.62Z"/><path class="cls-3" d="M112.39,29.36a.55.55,0,0,1,.27.67l-.94,5.08c0,.36-.24.46-.62.32a4.93,4.93,0,0,0-1.56-.23,7.44,7.44,0,0,0-1,.09,4.45,4.45,0,0,0-2.72,1.18,3.66,3.66,0,0,0-1.11,2.79V51.43a.55.55,0,0,1-.54.54H99a.55.55,0,0,1-.54-.54V29.58a.49.49,0,0,1,.16-.37.49.49,0,0,1,.38-.16h5.21a.49.49,0,0,1,.38.16.49.49,0,0,1,.16.37v1.7a.18.18,0,0,0,.09.18c.06,0,.1,0,.13-.05a5.68,5.68,0,0,1,4.91-2.67A4.59,4.59,0,0,1,112.39,29.36Z"/><path class="cls-3" d="M118.63,50.36A9.79,9.79,0,0,1,115,45a15.69,15.69,0,0,1-.63-4.55,16.39,16.39,0,0,1,.63-4.72,9.49,9.49,0,0,1,3.7-5.17,10.89,10.89,0,0,1,6.42-1.88,10.49,10.49,0,0,1,6.24,1.85A10,10,0,0,1,135,35.69a16.1,16.1,0,0,1,.08,9.19,9.91,9.91,0,0,1-3.63,5.46,10.4,10.4,0,0,1-6.4,2A10.55,10.55,0,0,1,118.63,50.36ZM127.55,46A5,5,0,0,0,129,43.59a12.87,12.87,0,0,0,.36-3.13A12,12,0,0,0,129,37.3a4.9,4.9,0,0,0-1.52-2.36,4.12,4.12,0,0,0-5,0A4.73,4.73,0,0,0,121,37.3a10.5,10.5,0,0,0-.36,3.16,12.64,12.64,0,0,0,.31,3.13,4.92,4.92,0,0,0,1.5,2.45,3.84,3.84,0,0,0,2.56.89A3.7,3.7,0,0,0,127.55,46Z"/><path class="cls-3" d="M170.62,30.79a8.27,8.27,0,0,1,2,5.88V51.43a.53.53,0,0,1-.53.54h-5.22a.51.51,0,0,1-.38-.16.53.53,0,0,1-.16-.38V38.06a4.26,4.26,0,0,0-.93-2.9,3.15,3.15,0,0,0-2.5-1.07,3.26,3.26,0,0,0-2.54,1.07,4.06,4.06,0,0,0-1,2.85V51.43a.55.55,0,0,1-.54.54h-5.17a.51.51,0,0,1-.38-.16.52.52,0,0,1-.15-.38V38.06a4.17,4.17,0,0,0-1-2.88,3.28,3.28,0,0,0-2.55-1.09,3.44,3.44,0,0,0-2.38.85,3.56,3.56,0,0,0-1.14,2.36V51.43a.52.52,0,0,1-.15.38.51.51,0,0,1-.38.16H140.3a.51.51,0,0,1-.38-.16.52.52,0,0,1-.15-.38V29.58a.51.51,0,0,1,.15-.37.51.51,0,0,1,.38-.16h5.22a.51.51,0,0,1,.38.16.51.51,0,0,1,.15.37v1.74a.18.18,0,0,0,.09.18q.09,0,.18-.09A6.36,6.36,0,0,1,152,28.69a7.87,7.87,0,0,1,3.9.94,6.28,6.28,0,0,1,2.57,2.68c.09.17.19.17.31,0a6.47,6.47,0,0,1,2.65-2.73,8,8,0,0,1,3.77-.89A7.08,7.08,0,0,1,170.62,30.79Z"/><path class="cls-3" d="M198.26,40.55a17.48,17.48,0,0,1-.84,5.58,9.55,9.55,0,0,1-3.24,4.52,8.74,8.74,0,0,1-5.46,1.67,6,6,0,0,1-5-2.22q-.09-.14-.18-.09a.18.18,0,0,0-.09.17v9.55a.51.51,0,0,1-.53.53h-5.22a.52.52,0,0,1-.38-.15.57.57,0,0,1-.16-.38V29.58a.52.52,0,0,1,.16-.37.49.49,0,0,1,.38-.16h5.22a.52.52,0,0,1,.38.16.51.51,0,0,1,.15.37v1.48q0,.14.09.15a.19.19,0,0,0,.18-.06,6.14,6.14,0,0,1,5.17-2.46,8.57,8.57,0,0,1,5.33,1.72,9.38,9.38,0,0,1,3.23,4.79A16,16,0,0,1,198.26,40.55Zm-6.51-.09a9.13,9.13,0,0,0-.93-4.46,3.49,3.49,0,0,0-3.3-1.91A3.31,3.31,0,0,0,184.44,36a9.1,9.1,0,0,0-.93,4.51,9.07,9.07,0,0,0,1,4.64,3.3,3.3,0,0,0,3,1.78,3.5,3.5,0,0,0,3.12-1.74A8.71,8.71,0,0,0,191.75,40.46Z"/><path class="cls-3" d="M215.32,33.93a.51.51,0,0,1-.38.16h-4.28a.19.19,0,0,0-.22.22v9.45A3.37,3.37,0,0,0,211,46a2.42,2.42,0,0,0,1.94.71h1.47a.51.51,0,0,1,.38.16.52.52,0,0,1,.15.38v4.23a.54.54,0,0,1-.53.58c-1.25.06-2.14.09-2.68.09a10.06,10.06,0,0,1-5.52-1.22q-1.83-1.23-1.88-4.62V34.31a.19.19,0,0,0-.22-.22h-2.54a.55.55,0,0,1-.54-.54v-4a.49.49,0,0,1,.16-.37.49.49,0,0,1,.38-.16h2.54a.19.19,0,0,0,.22-.22V23.52a.51.51,0,0,1,.16-.38.52.52,0,0,1,.38-.15h5a.52.52,0,0,1,.38.15.55.55,0,0,1,.16.38v5.31a.19.19,0,0,0,.22.22h4.28a.51.51,0,0,1,.38.16.51.51,0,0,1,.15.37v4A.52.52,0,0,1,215.32,33.93Z"/><path class="cls-3" d="M239.42,41.94a.52.52,0,0,1-.58.53H225.06c-.18,0-.24.07-.18.22a8,8,0,0,0,.49,1.79c.78,1.66,2.35,2.49,4.73,2.49a5.39,5.39,0,0,0,4.5-2.31.49.49,0,0,1,.4-.27.46.46,0,0,1,.31.18l3.22,3.16a.65.65,0,0,1,.22.4.93.93,0,0,1-.18.36,9.68,9.68,0,0,1-3.79,2.83,12.65,12.65,0,0,1-5.08,1,11.65,11.65,0,0,1-6.49-1.73,9.64,9.64,0,0,1-3.81-4.86,15.22,15.22,0,0,1-.94-5.85,12.73,12.73,0,0,1,.67-4.32,9.79,9.79,0,0,1,3.59-5,10,10,0,0,1,6.09-1.87A9.91,9.91,0,0,1,236,31.23a11.35,11.35,0,0,1,3.28,6.92A19,19,0,0,1,239.42,41.94Zm-14.27-5.22a10.51,10.51,0,0,0-.31,1.43.2.2,0,0,0,.22.22h7.71c.18,0,.24-.08.18-.22-.15-.87-.22-1.28-.22-1.25a3.85,3.85,0,0,0-1.41-2.08,4,4,0,0,0-2.47-.73A3.57,3.57,0,0,0,225.15,36.72Z"/><path class="cls-3" d="M257.25,29.36a.55.55,0,0,1,.27.67l-.94,5.08c0,.36-.23.46-.62.32a4.93,4.93,0,0,0-1.56-.23,7.18,7.18,0,0,0-1,.09,4.42,4.42,0,0,0-2.72,1.18,3.63,3.63,0,0,0-1.12,2.79V51.43a.52.52,0,0,1-.15.38.51.51,0,0,1-.38.16h-5.22a.51.51,0,0,1-.38-.16.52.52,0,0,1-.15-.38V29.58a.51.51,0,0,1,.15-.37.51.51,0,0,1,.38-.16h5.22a.51.51,0,0,1,.38.16.51.51,0,0,1,.15.37v1.7a.18.18,0,0,0,.09.18.1.1,0,0,0,.14-.05,5.65,5.65,0,0,1,4.9-2.67A4.57,4.57,0,0,1,257.25,29.36Z"/><path class="cls-3" d="M256.72,51.14a3.41,3.41,0,0,1-1-2.52,3.59,3.59,0,0,1,6.06-2.54,3.58,3.58,0,0,1-5.06,5.06Z"/><path class="cls-3" d="M298.66,30.79a8.32,8.32,0,0,1,2,5.88V51.43a.55.55,0,0,1-.54.54h-5.21a.55.55,0,0,1-.54-.54V38.06a4.26,4.26,0,0,0-.93-2.9,3.15,3.15,0,0,0-2.5-1.07,3.26,3.26,0,0,0-2.54,1.07,4,4,0,0,0-1,2.85V51.43a.53.53,0,0,1-.16.38.49.49,0,0,1-.38.16h-5.17a.49.49,0,0,1-.38-.16.53.53,0,0,1-.16-.38V38.06a4.12,4.12,0,0,0-1-2.88,3.24,3.24,0,0,0-2.54-1.09,3.44,3.44,0,0,0-2.38.85,3.56,3.56,0,0,0-1.14,2.36V51.43a.55.55,0,0,1-.54.54h-5.21a.55.55,0,0,1-.54-.54V29.58a.49.49,0,0,1,.16-.37.49.49,0,0,1,.38-.16h5.21a.49.49,0,0,1,.38.16.49.49,0,0,1,.16.37v1.74a.18.18,0,0,0,.09.18q.09,0,.18-.09A6.34,6.34,0,0,1,280,28.69a7.87,7.87,0,0,1,3.9.94,6.2,6.2,0,0,1,2.56,2.68c.09.17.2.17.32,0a6.41,6.41,0,0,1,2.65-2.73,7.92,7.92,0,0,1,3.77-.89A7.08,7.08,0,0,1,298.66,30.79Z"/><path class="cls-3" d="M325.37,41.94a.53.53,0,0,1-.59.53H311c-.18,0-.24.07-.18.22a8,8,0,0,0,.49,1.79Q312.47,47,316.05,47a5.39,5.39,0,0,0,4.5-2.31.49.49,0,0,1,.4-.27.48.48,0,0,1,.31.18l3.21,3.16a.62.62,0,0,1,.23.4.93.93,0,0,1-.18.36,9.76,9.76,0,0,1-3.79,2.83,12.67,12.67,0,0,1-5.09,1,11.64,11.64,0,0,1-6.48-1.73,9.71,9.71,0,0,1-3.82-4.86,15.44,15.44,0,0,1-.93-5.85,12.73,12.73,0,0,1,.67-4.32,9.79,9.79,0,0,1,3.59-5,11,11,0,0,1,13.24.71,11.35,11.35,0,0,1,3.28,6.92A19.78,19.78,0,0,1,325.37,41.94ZM311.1,36.72a10.37,10.37,0,0,0-.32,1.43.2.2,0,0,0,.23.22h7.71c.18,0,.24-.08.18-.22-.15-.87-.22-1.28-.22-1.25a3.85,3.85,0,0,0-1.41-2.08,4.06,4.06,0,0,0-2.47-.73A3.57,3.57,0,0,0,311.1,36.72Z"/></g></g></svg>